<mxfile host="app.diagrams.net" agent="Mozilla/5.0 (Windows NT 10.0; Win64; x64) AppleWebKit/537.36 (KHTML, like Gecko) Chrome/126.0.0.0 Safari/537.36 Edg/126.0.0.0" version="24.7.7">
  <diagram name="第 1 页" id="Fxgn2_xahwiR0fhLUiCK">
    <mxGraphModel dx="4703" dy="2344" grid="1" gridSize="10" guides="1" tooltips="1" connect="1" arrows="1" fold="1" page="1" pageScale="1" pageWidth="827" pageHeight="1169" math="0" shadow="0">
      <root>
        <mxCell id="0" />
        <mxCell id="1" parent="0" />
        <mxCell id="J4vNvcoXh2Qppn3Emtqz-5" style="edgeStyle=orthogonalEdgeStyle;rounded=0;orthogonalLoop=1;jettySize=auto;html=1;entryX=0.5;entryY=0;entryDx=0;entryDy=0;strokeColor=default;align=center;verticalAlign=middle;fontFamily=Helvetica;fontSize=11;fontColor=default;labelBackgroundColor=default;endArrow=open;endFill=0;endSize=12;dashed=1;jumpStyle=arc;" edge="1" parent="1" source="J4vNvcoXh2Qppn3Emtqz-43" target="J4vNvcoXh2Qppn3Emtqz-80">
          <mxGeometry relative="1" as="geometry">
            <Array as="points">
              <mxPoint x="320" y="1275" />
              <mxPoint x="320" y="1080" />
              <mxPoint x="-180" y="1080" />
            </Array>
          </mxGeometry>
        </mxCell>
        <mxCell id="J4vNvcoXh2Qppn3Emtqz-6" style="edgeStyle=orthogonalEdgeStyle;rounded=0;orthogonalLoop=1;jettySize=auto;html=1;entryX=0;entryY=0.5;entryDx=0;entryDy=0;strokeColor=default;align=center;verticalAlign=middle;fontFamily=Helvetica;fontSize=11;fontColor=default;labelBackgroundColor=default;endArrow=open;endFill=0;endSize=12;jumpStyle=arc;" edge="1" parent="1" source="J4vNvcoXh2Qppn3Emtqz-66" target="J4vNvcoXh2Qppn3Emtqz-55">
          <mxGeometry relative="1" as="geometry">
            <Array as="points">
              <mxPoint x="-50" y="895" />
              <mxPoint x="-50" y="820" />
              <mxPoint x="630" y="820" />
              <mxPoint x="630" y="1145" />
            </Array>
          </mxGeometry>
        </mxCell>
        <mxCell id="J4vNvcoXh2Qppn3Emtqz-7" value="Person" style="swimlane;fontStyle=2;align=center;verticalAlign=top;childLayout=stackLayout;horizontal=1;startSize=26;horizontalStack=0;resizeParent=1;resizeLast=0;collapsible=1;marginBottom=0;rounded=0;shadow=0;strokeWidth=1;" vertex="1" parent="1">
          <mxGeometry x="220" y="120" width="160" height="164" as="geometry">
            <mxRectangle x="230" y="140" width="160" height="26" as="alternateBounds" />
          </mxGeometry>
        </mxCell>
        <mxCell id="J4vNvcoXh2Qppn3Emtqz-8" value="Name" style="text;align=left;verticalAlign=top;spacingLeft=4;spacingRight=4;overflow=hidden;rotatable=0;points=[[0,0.5],[1,0.5]];portConstraint=eastwest;" vertex="1" parent="J4vNvcoXh2Qppn3Emtqz-7">
          <mxGeometry y="26" width="160" height="26" as="geometry" />
        </mxCell>
        <mxCell id="J4vNvcoXh2Qppn3Emtqz-9" value="Phone Number" style="text;align=left;verticalAlign=top;spacingLeft=4;spacingRight=4;overflow=hidden;rotatable=0;points=[[0,0.5],[1,0.5]];portConstraint=eastwest;rounded=0;shadow=0;html=0;" vertex="1" parent="J4vNvcoXh2Qppn3Emtqz-7">
          <mxGeometry y="52" width="160" height="26" as="geometry" />
        </mxCell>
        <mxCell id="J4vNvcoXh2Qppn3Emtqz-10" value="Email Address" style="text;align=left;verticalAlign=top;spacingLeft=4;spacingRight=4;overflow=hidden;rotatable=0;points=[[0,0.5],[1,0.5]];portConstraint=eastwest;rounded=0;shadow=0;html=0;" vertex="1" parent="J4vNvcoXh2Qppn3Emtqz-7">
          <mxGeometry y="78" width="160" height="26" as="geometry" />
        </mxCell>
        <mxCell id="J4vNvcoXh2Qppn3Emtqz-11" value="Email Address" style="text;align=left;verticalAlign=top;spacingLeft=4;spacingRight=4;overflow=hidden;rotatable=0;points=[[0,0.5],[1,0.5]];portConstraint=eastwest;rounded=0;shadow=0;html=0;" vertex="1" parent="J4vNvcoXh2Qppn3Emtqz-7">
          <mxGeometry y="104" width="160" height="26" as="geometry" />
        </mxCell>
        <mxCell id="J4vNvcoXh2Qppn3Emtqz-12" value="" style="line;html=1;strokeWidth=1;align=left;verticalAlign=middle;spacingTop=-1;spacingLeft=3;spacingRight=3;rotatable=0;labelPosition=right;points=[];portConstraint=eastwest;" vertex="1" parent="J4vNvcoXh2Qppn3Emtqz-7">
          <mxGeometry y="130" width="160" height="8" as="geometry" />
        </mxCell>
        <mxCell id="J4vNvcoXh2Qppn3Emtqz-13" value="Student" style="swimlane;fontStyle=0;align=center;verticalAlign=top;childLayout=stackLayout;horizontal=1;startSize=26;horizontalStack=0;resizeParent=1;resizeLast=0;collapsible=1;marginBottom=0;rounded=0;shadow=0;strokeWidth=1;" vertex="1" parent="1">
          <mxGeometry x="120" y="360" width="160" height="138" as="geometry">
            <mxRectangle x="130" y="380" width="160" height="26" as="alternateBounds" />
          </mxGeometry>
        </mxCell>
        <mxCell id="J4vNvcoXh2Qppn3Emtqz-14" value="Student Number" style="text;align=left;verticalAlign=top;spacingLeft=4;spacingRight=4;overflow=hidden;rotatable=0;points=[[0,0.5],[1,0.5]];portConstraint=eastwest;" vertex="1" parent="J4vNvcoXh2Qppn3Emtqz-13">
          <mxGeometry y="26" width="160" height="26" as="geometry" />
        </mxCell>
        <mxCell id="J4vNvcoXh2Qppn3Emtqz-15" value="Average Mark" style="text;align=left;verticalAlign=top;spacingLeft=4;spacingRight=4;overflow=hidden;rotatable=0;points=[[0,0.5],[1,0.5]];portConstraint=eastwest;rounded=0;shadow=0;html=0;" vertex="1" parent="J4vNvcoXh2Qppn3Emtqz-13">
          <mxGeometry y="52" width="160" height="26" as="geometry" />
        </mxCell>
        <mxCell id="J4vNvcoXh2Qppn3Emtqz-16" value="" style="line;html=1;strokeWidth=1;align=left;verticalAlign=middle;spacingTop=-1;spacingLeft=3;spacingRight=3;rotatable=0;labelPosition=right;points=[];portConstraint=eastwest;" vertex="1" parent="J4vNvcoXh2Qppn3Emtqz-13">
          <mxGeometry y="78" width="160" height="8" as="geometry" />
        </mxCell>
        <mxCell id="J4vNvcoXh2Qppn3Emtqz-17" value="Is Eligible To Enroll" style="text;align=left;verticalAlign=top;spacingLeft=4;spacingRight=4;overflow=hidden;rotatable=0;points=[[0,0.5],[1,0.5]];portConstraint=eastwest;fontStyle=4" vertex="1" parent="J4vNvcoXh2Qppn3Emtqz-13">
          <mxGeometry y="86" width="160" height="26" as="geometry" />
        </mxCell>
        <mxCell id="J4vNvcoXh2Qppn3Emtqz-18" value="Get Seminars Taken" style="text;align=left;verticalAlign=top;spacingLeft=4;spacingRight=4;overflow=hidden;rotatable=0;points=[[0,0.5],[1,0.5]];portConstraint=eastwest;" vertex="1" parent="J4vNvcoXh2Qppn3Emtqz-13">
          <mxGeometry y="112" width="160" height="26" as="geometry" />
        </mxCell>
        <mxCell id="J4vNvcoXh2Qppn3Emtqz-19" value="" style="endArrow=block;endSize=10;endFill=0;shadow=0;strokeWidth=1;rounded=0;curved=0;edgeStyle=elbowEdgeStyle;elbow=vertical;" edge="1" parent="1" source="J4vNvcoXh2Qppn3Emtqz-13" target="J4vNvcoXh2Qppn3Emtqz-7">
          <mxGeometry width="160" relative="1" as="geometry">
            <mxPoint x="200" y="203" as="sourcePoint" />
            <mxPoint x="200" y="203" as="targetPoint" />
          </mxGeometry>
        </mxCell>
        <mxCell id="J4vNvcoXh2Qppn3Emtqz-20" value="Professor" style="swimlane;fontStyle=0;align=center;verticalAlign=top;childLayout=stackLayout;horizontal=1;startSize=26;horizontalStack=0;resizeParent=1;resizeLast=0;collapsible=1;marginBottom=0;rounded=0;shadow=0;strokeWidth=1;" vertex="1" parent="1">
          <mxGeometry x="330" y="360" width="160" height="70" as="geometry">
            <mxRectangle x="340" y="380" width="170" height="26" as="alternateBounds" />
          </mxGeometry>
        </mxCell>
        <mxCell id="J4vNvcoXh2Qppn3Emtqz-21" value="Salary" style="text;align=left;verticalAlign=top;spacingLeft=4;spacingRight=4;overflow=hidden;rotatable=0;points=[[0,0.5],[1,0.5]];portConstraint=eastwest;" vertex="1" parent="J4vNvcoXh2Qppn3Emtqz-20">
          <mxGeometry y="26" width="160" height="26" as="geometry" />
        </mxCell>
        <mxCell id="J4vNvcoXh2Qppn3Emtqz-22" value="" style="line;html=1;strokeWidth=1;align=left;verticalAlign=middle;spacingTop=-1;spacingLeft=3;spacingRight=3;rotatable=0;labelPosition=right;points=[];portConstraint=eastwest;" vertex="1" parent="J4vNvcoXh2Qppn3Emtqz-20">
          <mxGeometry y="52" width="160" height="8" as="geometry" />
        </mxCell>
        <mxCell id="J4vNvcoXh2Qppn3Emtqz-23" value="" style="endArrow=block;endSize=10;endFill=0;shadow=0;strokeWidth=1;rounded=0;curved=0;edgeStyle=elbowEdgeStyle;elbow=vertical;" edge="1" parent="1" source="J4vNvcoXh2Qppn3Emtqz-20" target="J4vNvcoXh2Qppn3Emtqz-7">
          <mxGeometry width="160" relative="1" as="geometry">
            <mxPoint x="210" y="373" as="sourcePoint" />
            <mxPoint x="310" y="271" as="targetPoint" />
          </mxGeometry>
        </mxCell>
        <mxCell id="J4vNvcoXh2Qppn3Emtqz-24" value="Address" style="swimlane;fontStyle=0;align=center;verticalAlign=top;childLayout=stackLayout;horizontal=1;startSize=26;horizontalStack=0;resizeParent=1;resizeLast=0;collapsible=1;marginBottom=0;rounded=0;shadow=0;strokeWidth=1;" vertex="1" parent="1">
          <mxGeometry x="508" y="120" width="160" height="216" as="geometry">
            <mxRectangle x="550" y="140" width="160" height="26" as="alternateBounds" />
          </mxGeometry>
        </mxCell>
        <mxCell id="J4vNvcoXh2Qppn3Emtqz-25" value="Street" style="text;align=left;verticalAlign=top;spacingLeft=4;spacingRight=4;overflow=hidden;rotatable=0;points=[[0,0.5],[1,0.5]];portConstraint=eastwest;" vertex="1" parent="J4vNvcoXh2Qppn3Emtqz-24">
          <mxGeometry y="26" width="160" height="26" as="geometry" />
        </mxCell>
        <mxCell id="J4vNvcoXh2Qppn3Emtqz-26" value="City" style="text;align=left;verticalAlign=top;spacingLeft=4;spacingRight=4;overflow=hidden;rotatable=0;points=[[0,0.5],[1,0.5]];portConstraint=eastwest;rounded=0;shadow=0;html=0;" vertex="1" parent="J4vNvcoXh2Qppn3Emtqz-24">
          <mxGeometry y="52" width="160" height="26" as="geometry" />
        </mxCell>
        <mxCell id="J4vNvcoXh2Qppn3Emtqz-27" value="State" style="text;align=left;verticalAlign=top;spacingLeft=4;spacingRight=4;overflow=hidden;rotatable=0;points=[[0,0.5],[1,0.5]];portConstraint=eastwest;rounded=0;shadow=0;html=0;" vertex="1" parent="J4vNvcoXh2Qppn3Emtqz-24">
          <mxGeometry y="78" width="160" height="26" as="geometry" />
        </mxCell>
        <mxCell id="J4vNvcoXh2Qppn3Emtqz-28" value="Postal Code" style="text;align=left;verticalAlign=top;spacingLeft=4;spacingRight=4;overflow=hidden;rotatable=0;points=[[0,0.5],[1,0.5]];portConstraint=eastwest;rounded=0;shadow=0;html=0;" vertex="1" parent="J4vNvcoXh2Qppn3Emtqz-24">
          <mxGeometry y="104" width="160" height="26" as="geometry" />
        </mxCell>
        <mxCell id="J4vNvcoXh2Qppn3Emtqz-29" value="Country" style="text;align=left;verticalAlign=top;spacingLeft=4;spacingRight=4;overflow=hidden;rotatable=0;points=[[0,0.5],[1,0.5]];portConstraint=eastwest;rounded=0;shadow=0;html=0;" vertex="1" parent="J4vNvcoXh2Qppn3Emtqz-24">
          <mxGeometry y="130" width="160" height="26" as="geometry" />
        </mxCell>
        <mxCell id="J4vNvcoXh2Qppn3Emtqz-30" value="" style="line;html=1;strokeWidth=1;align=left;verticalAlign=middle;spacingTop=-1;spacingLeft=3;spacingRight=3;rotatable=0;labelPosition=right;points=[];portConstraint=eastwest;" vertex="1" parent="J4vNvcoXh2Qppn3Emtqz-24">
          <mxGeometry y="156" width="160" height="8" as="geometry" />
        </mxCell>
        <mxCell id="J4vNvcoXh2Qppn3Emtqz-31" value="Validate" style="text;align=left;verticalAlign=top;spacingLeft=4;spacingRight=4;overflow=hidden;rotatable=0;points=[[0,0.5],[1,0.5]];portConstraint=eastwest;" vertex="1" parent="J4vNvcoXh2Qppn3Emtqz-24">
          <mxGeometry y="164" width="160" height="26" as="geometry" />
        </mxCell>
        <mxCell id="J4vNvcoXh2Qppn3Emtqz-32" value="Output As Label" style="text;align=left;verticalAlign=top;spacingLeft=4;spacingRight=4;overflow=hidden;rotatable=0;points=[[0,0.5],[1,0.5]];portConstraint=eastwest;" vertex="1" parent="J4vNvcoXh2Qppn3Emtqz-24">
          <mxGeometry y="190" width="160" height="26" as="geometry" />
        </mxCell>
        <mxCell id="J4vNvcoXh2Qppn3Emtqz-33" value="" style="endArrow=open;shadow=0;strokeWidth=1;rounded=0;curved=0;endFill=1;edgeStyle=elbowEdgeStyle;elbow=vertical;" edge="1" parent="1" source="J4vNvcoXh2Qppn3Emtqz-7" target="J4vNvcoXh2Qppn3Emtqz-24">
          <mxGeometry x="0.5" y="41" relative="1" as="geometry">
            <mxPoint x="380" y="192" as="sourcePoint" />
            <mxPoint x="540" y="192" as="targetPoint" />
            <mxPoint x="-40" y="32" as="offset" />
          </mxGeometry>
        </mxCell>
        <mxCell id="J4vNvcoXh2Qppn3Emtqz-34" value="0..1" style="resizable=0;align=left;verticalAlign=bottom;labelBackgroundColor=none;fontSize=12;" connectable="0" vertex="1" parent="J4vNvcoXh2Qppn3Emtqz-33">
          <mxGeometry x="-1" relative="1" as="geometry">
            <mxPoint y="4" as="offset" />
          </mxGeometry>
        </mxCell>
        <mxCell id="J4vNvcoXh2Qppn3Emtqz-35" value="1" style="resizable=0;align=right;verticalAlign=bottom;labelBackgroundColor=none;fontSize=12;" connectable="0" vertex="1" parent="J4vNvcoXh2Qppn3Emtqz-33">
          <mxGeometry x="1" relative="1" as="geometry">
            <mxPoint x="-7" y="4" as="offset" />
          </mxGeometry>
        </mxCell>
        <mxCell id="J4vNvcoXh2Qppn3Emtqz-36" value="lives at" style="text;html=1;resizable=0;points=[];;align=center;verticalAlign=middle;labelBackgroundColor=none;rounded=0;shadow=0;strokeWidth=1;fontSize=12;" vertex="1" connectable="0" parent="J4vNvcoXh2Qppn3Emtqz-33">
          <mxGeometry x="0.5" y="49" relative="1" as="geometry">
            <mxPoint x="-38" y="40" as="offset" />
          </mxGeometry>
        </mxCell>
        <mxCell id="J4vNvcoXh2Qppn3Emtqz-37" value="DomainEventConfiguration" style="html=1;whiteSpace=wrap;" vertex="1" parent="1">
          <mxGeometry x="40" y="1250" width="200" height="50" as="geometry" />
        </mxCell>
        <mxCell id="J4vNvcoXh2Qppn3Emtqz-38" value="" style="endArrow=block;endSize=10;endFill=0;shadow=0;strokeWidth=1;rounded=0;edgeStyle=orthogonalEdgeStyle;elbow=vertical;" edge="1" parent="1" source="J4vNvcoXh2Qppn3Emtqz-39" target="J4vNvcoXh2Qppn3Emtqz-37">
          <mxGeometry relative="1" as="geometry" />
        </mxCell>
        <mxCell id="J4vNvcoXh2Qppn3Emtqz-39" value="DomainEventExtensionConfiguration" style="html=1;whiteSpace=wrap;" vertex="1" parent="1">
          <mxGeometry x="40" y="1380" width="200" height="50" as="geometry" />
        </mxCell>
        <mxCell id="J4vNvcoXh2Qppn3Emtqz-40" value="&lt;div&gt;«interface»&lt;br&gt;&lt;/div&gt;ShardingConfigProvider" style="html=1;whiteSpace=wrap;" vertex="1" parent="1">
          <mxGeometry x="380" y="1120" width="200" height="50" as="geometry" />
        </mxCell>
        <mxCell id="J4vNvcoXh2Qppn3Emtqz-41" value="" style="endArrow=block;endSize=10;endFill=0;shadow=0;strokeWidth=1;rounded=0;edgeStyle=orthogonalEdgeStyle;elbow=vertical;dashed=1;" edge="1" parent="1" source="J4vNvcoXh2Qppn3Emtqz-43" target="J4vNvcoXh2Qppn3Emtqz-40">
          <mxGeometry relative="1" as="geometry" />
        </mxCell>
        <mxCell id="J4vNvcoXh2Qppn3Emtqz-42" value="" style="edgeStyle=orthogonalEdgeStyle;rounded=0;orthogonalLoop=1;jettySize=auto;html=1;startSize=14;endSize=12;startArrow=diamondThin;startFill=0;endArrow=open;endFill=0;" edge="1" parent="1" source="J4vNvcoXh2Qppn3Emtqz-43" target="J4vNvcoXh2Qppn3Emtqz-45">
          <mxGeometry relative="1" as="geometry" />
        </mxCell>
        <mxCell id="J4vNvcoXh2Qppn3Emtqz-43" value="ExtensionContext&lt;div&gt;ShardingConfigProvider&lt;/div&gt;" style="html=1;whiteSpace=wrap;" vertex="1" parent="1">
          <mxGeometry x="380" y="1250" width="200" height="50" as="geometry" />
        </mxCell>
        <mxCell id="J4vNvcoXh2Qppn3Emtqz-44" style="edgeStyle=orthogonalEdgeStyle;rounded=0;orthogonalLoop=1;jettySize=auto;html=1;entryX=1;entryY=0.5;entryDx=0;entryDy=0;strokeColor=default;align=center;verticalAlign=middle;fontFamily=Helvetica;fontSize=11;fontColor=default;labelBackgroundColor=default;endArrow=open;endFill=0;endSize=12;exitX=0.5;exitY=1;exitDx=0;exitDy=0;dashed=1;" edge="1" parent="1" source="J4vNvcoXh2Qppn3Emtqz-45" target="J4vNvcoXh2Qppn3Emtqz-39">
          <mxGeometry relative="1" as="geometry">
            <Array as="points">
              <mxPoint x="780" y="1405" />
            </Array>
          </mxGeometry>
        </mxCell>
        <mxCell id="J4vNvcoXh2Qppn3Emtqz-45" value="ShardingConfig" style="html=1;whiteSpace=wrap;" vertex="1" parent="1">
          <mxGeometry x="680" y="1250" width="200" height="50" as="geometry" />
        </mxCell>
        <mxCell id="J4vNvcoXh2Qppn3Emtqz-46" value="1" style="endArrow=open;html=1;endSize=12;startArrow=diamondThin;startSize=14;startFill=0;edgeStyle=orthogonalEdgeStyle;align=left;verticalAlign=bottom;rounded=0;entryX=0;entryY=0.5;entryDx=0;entryDy=0;" edge="1" parent="1">
          <mxGeometry x="-1" y="3" relative="1" as="geometry">
            <mxPoint x="668" y="500" as="sourcePoint" />
            <mxPoint x="768" y="500.5" as="targetPoint" />
          </mxGeometry>
        </mxCell>
        <mxCell id="J4vNvcoXh2Qppn3Emtqz-47" value="&lt;div&gt;«interface»&lt;br&gt;&lt;/div&gt;EventStorageTableNameProvider" style="html=1;whiteSpace=wrap;" vertex="1" parent="1">
          <mxGeometry x="380" y="870" width="200" height="50" as="geometry" />
        </mxCell>
        <mxCell id="J4vNvcoXh2Qppn3Emtqz-48" value="" style="endArrow=block;endSize=10;endFill=0;shadow=0;strokeWidth=1;rounded=0;edgeStyle=orthogonalEdgeStyle;elbow=vertical;dashed=1;" edge="1" parent="1" source="J4vNvcoXh2Qppn3Emtqz-52" target="J4vNvcoXh2Qppn3Emtqz-47">
          <mxGeometry relative="1" as="geometry" />
        </mxCell>
        <mxCell id="J4vNvcoXh2Qppn3Emtqz-49" value="" style="edgeStyle=orthogonalEdgeStyle;rounded=0;orthogonalLoop=1;jettySize=auto;html=1;startSize=6;endSize=12;startArrow=none;startFill=0;endArrow=open;endFill=0;entryX=0.5;entryY=0;entryDx=0;entryDy=0;" edge="1" parent="1" source="J4vNvcoXh2Qppn3Emtqz-52" target="J4vNvcoXh2Qppn3Emtqz-40">
          <mxGeometry relative="1" as="geometry">
            <mxPoint x="680" y="1025" as="targetPoint" />
          </mxGeometry>
        </mxCell>
        <mxCell id="J4vNvcoXh2Qppn3Emtqz-50" style="edgeStyle=orthogonalEdgeStyle;rounded=0;orthogonalLoop=1;jettySize=auto;html=1;entryX=0.5;entryY=0;entryDx=0;entryDy=0;endSize=12;endArrow=open;endFill=0;jumpStyle=arc;" edge="1" parent="1" source="J4vNvcoXh2Qppn3Emtqz-52" target="J4vNvcoXh2Qppn3Emtqz-55">
          <mxGeometry relative="1" as="geometry" />
        </mxCell>
        <mxCell id="J4vNvcoXh2Qppn3Emtqz-51" style="edgeStyle=orthogonalEdgeStyle;rounded=0;orthogonalLoop=1;jettySize=auto;html=1;entryX=0;entryY=0.5;entryDx=0;entryDy=0;endArrow=open;endFill=0;endSize=12;jumpStyle=arc;" edge="1" parent="1" source="J4vNvcoXh2Qppn3Emtqz-52" target="J4vNvcoXh2Qppn3Emtqz-57">
          <mxGeometry relative="1" as="geometry" />
        </mxCell>
        <mxCell id="J4vNvcoXh2Qppn3Emtqz-52" value="ConfigurationPreference&lt;div&gt;EventTableProvider&lt;/div&gt;" style="html=1;whiteSpace=wrap;" vertex="1" parent="1">
          <mxGeometry x="380" y="1000" width="200" height="50" as="geometry" />
        </mxCell>
        <mxCell id="J4vNvcoXh2Qppn3Emtqz-53" value="Use" style="endArrow=open;endSize=12;dashed=1;html=1;rounded=0;" edge="1" parent="1">
          <mxGeometry width="160" relative="1" as="geometry">
            <mxPoint x="170" y="730" as="sourcePoint" />
            <mxPoint x="330" y="730" as="targetPoint" />
          </mxGeometry>
        </mxCell>
        <mxCell id="J4vNvcoXh2Qppn3Emtqz-54" value="" style="edgeStyle=orthogonalEdgeStyle;rounded=0;orthogonalLoop=1;jettySize=auto;html=1;strokeColor=default;align=center;verticalAlign=middle;fontFamily=Helvetica;fontSize=11;fontColor=default;labelBackgroundColor=default;endArrow=open;endFill=0;endSize=12;" edge="1" parent="1" source="J4vNvcoXh2Qppn3Emtqz-55" target="J4vNvcoXh2Qppn3Emtqz-60">
          <mxGeometry relative="1" as="geometry" />
        </mxCell>
        <mxCell id="J4vNvcoXh2Qppn3Emtqz-55" value="EventConfigurationRepository" style="html=1;whiteSpace=wrap;" vertex="1" parent="1">
          <mxGeometry x="680" y="1120" width="200" height="50" as="geometry" />
        </mxCell>
        <mxCell id="J4vNvcoXh2Qppn3Emtqz-56" value="&amp;laquo;interface&amp;raquo;&lt;br&gt;&lt;b&gt;Name&lt;/b&gt;" style="html=1;whiteSpace=wrap;" vertex="1" parent="1">
          <mxGeometry x="10" y="570" width="110" height="50" as="geometry" />
        </mxCell>
        <mxCell id="J4vNvcoXh2Qppn3Emtqz-57" value="ShardingSelector" style="html=1;whiteSpace=wrap;" vertex="1" parent="1">
          <mxGeometry x="960" y="1000" width="200" height="50" as="geometry" />
        </mxCell>
        <mxCell id="J4vNvcoXh2Qppn3Emtqz-58" style="edgeStyle=orthogonalEdgeStyle;rounded=0;orthogonalLoop=1;jettySize=auto;html=1;entryX=0;entryY=0.5;entryDx=0;entryDy=0;endSize=12;endArrow=open;endFill=0;" edge="1" parent="1" source="J4vNvcoXh2Qppn3Emtqz-59" target="J4vNvcoXh2Qppn3Emtqz-47">
          <mxGeometry relative="1" as="geometry" />
        </mxCell>
        <mxCell id="J4vNvcoXh2Qppn3Emtqz-59" value="EventStorageDao" style="html=1;whiteSpace=wrap;" vertex="1" parent="1">
          <mxGeometry x="40" y="870" width="200" height="50" as="geometry" />
        </mxCell>
        <mxCell id="J4vNvcoXh2Qppn3Emtqz-60" value="EventConfigurationDao" style="html=1;whiteSpace=wrap;" vertex="1" parent="1">
          <mxGeometry x="960" y="1120" width="200" height="50" as="geometry" />
        </mxCell>
        <mxCell id="J4vNvcoXh2Qppn3Emtqz-61" value="&lt;div&gt;«interface»&lt;br&gt;&lt;/div&gt;&lt;div&gt;ResumableEventRepository&lt;br&gt;&lt;/div&gt;" style="html=1;whiteSpace=wrap;" vertex="1" parent="1">
          <mxGeometry x="-280" y="710" width="200" height="50" as="geometry" />
        </mxCell>
        <mxCell id="J4vNvcoXh2Qppn3Emtqz-62" style="edgeStyle=orthogonalEdgeStyle;rounded=0;orthogonalLoop=1;jettySize=auto;html=1;entryX=0.5;entryY=1;entryDx=0;entryDy=0;strokeColor=default;align=center;verticalAlign=middle;fontFamily=Helvetica;fontSize=11;fontColor=default;labelBackgroundColor=default;endArrow=block;endFill=0;endSize=10;dashed=1;" edge="1" parent="1" source="J4vNvcoXh2Qppn3Emtqz-66" target="J4vNvcoXh2Qppn3Emtqz-61">
          <mxGeometry relative="1" as="geometry" />
        </mxCell>
        <mxCell id="J4vNvcoXh2Qppn3Emtqz-63" style="edgeStyle=orthogonalEdgeStyle;rounded=0;orthogonalLoop=1;jettySize=auto;html=1;entryX=0;entryY=0.5;entryDx=0;entryDy=0;strokeColor=default;align=center;verticalAlign=middle;fontFamily=Helvetica;fontSize=11;fontColor=default;labelBackgroundColor=default;endArrow=open;endFill=0;endSize=12;" edge="1" parent="1" source="J4vNvcoXh2Qppn3Emtqz-66" target="J4vNvcoXh2Qppn3Emtqz-59">
          <mxGeometry relative="1" as="geometry" />
        </mxCell>
        <mxCell id="J4vNvcoXh2Qppn3Emtqz-64" style="edgeStyle=orthogonalEdgeStyle;rounded=0;orthogonalLoop=1;jettySize=auto;html=1;entryX=0.5;entryY=0;entryDx=0;entryDy=0;strokeColor=default;align=center;verticalAlign=middle;fontFamily=Helvetica;fontSize=11;fontColor=default;labelBackgroundColor=default;endArrow=open;endFill=0;endSize=12;startArrow=diamondThin;startFill=1;startSize=14;" edge="1" parent="1" source="J4vNvcoXh2Qppn3Emtqz-66" target="J4vNvcoXh2Qppn3Emtqz-69">
          <mxGeometry relative="1" as="geometry" />
        </mxCell>
        <mxCell id="J4vNvcoXh2Qppn3Emtqz-65" style="edgeStyle=orthogonalEdgeStyle;rounded=0;orthogonalLoop=1;jettySize=auto;html=1;entryX=0.5;entryY=0;entryDx=0;entryDy=0;strokeColor=default;align=center;verticalAlign=middle;fontFamily=Helvetica;fontSize=11;fontColor=default;labelBackgroundColor=default;endArrow=open;endFill=0;endSize=12;dashed=1;" edge="1" parent="1" source="J4vNvcoXh2Qppn3Emtqz-66" target="J4vNvcoXh2Qppn3Emtqz-80">
          <mxGeometry relative="1" as="geometry">
            <Array as="points">
              <mxPoint x="-50" y="895" />
              <mxPoint x="-50" y="1080" />
              <mxPoint x="-180" y="1080" />
            </Array>
          </mxGeometry>
        </mxCell>
        <mxCell id="J4vNvcoXh2Qppn3Emtqz-66" value="&lt;div&gt;ResumableEventRepositoryImpl&lt;br&gt;&lt;/div&gt;" style="html=1;whiteSpace=wrap;" vertex="1" parent="1">
          <mxGeometry x="-280" y="870" width="200" height="50" as="geometry" />
        </mxCell>
        <mxCell id="J4vNvcoXh2Qppn3Emtqz-67" style="edgeStyle=orthogonalEdgeStyle;rounded=0;orthogonalLoop=1;jettySize=auto;html=1;entryX=0;entryY=0.5;entryDx=0;entryDy=0;strokeColor=default;align=center;verticalAlign=middle;fontFamily=Helvetica;fontSize=11;fontColor=default;labelBackgroundColor=default;endArrow=open;endFill=0;endSize=12;" edge="1" parent="1" source="J4vNvcoXh2Qppn3Emtqz-68" target="J4vNvcoXh2Qppn3Emtqz-61">
          <mxGeometry relative="1" as="geometry" />
        </mxCell>
        <mxCell id="J4vNvcoXh2Qppn3Emtqz-68" value="&lt;div&gt;EventResumeScheduler&lt;br&gt;&lt;/div&gt;" style="html=1;whiteSpace=wrap;" vertex="1" parent="1">
          <mxGeometry x="-600" y="710" width="200" height="50" as="geometry" />
        </mxCell>
        <mxCell id="J4vNvcoXh2Qppn3Emtqz-69" value="&lt;div&gt;«interface»&lt;br&gt;&lt;/div&gt;&lt;div&gt;EventUpdatable&lt;br&gt;&lt;/div&gt;" style="html=1;whiteSpace=wrap;" vertex="1" parent="1">
          <mxGeometry x="-280" y="990" width="200" height="50" as="geometry" />
        </mxCell>
        <mxCell id="J4vNvcoXh2Qppn3Emtqz-70" value="1" style="endArrow=open;html=1;endSize=12;startArrow=diamondThin;startSize=14;startFill=0;edgeStyle=orthogonalEdgeStyle;align=left;verticalAlign=bottom;rounded=0;strokeColor=default;fontFamily=Helvetica;fontSize=11;fontColor=default;labelBackgroundColor=default;" edge="1" parent="1">
          <mxGeometry x="-1" y="3" relative="1" as="geometry">
            <mxPoint x="-380" y="580" as="sourcePoint" />
            <mxPoint x="-220" y="580" as="targetPoint" />
          </mxGeometry>
        </mxCell>
        <mxCell id="J4vNvcoXh2Qppn3Emtqz-71" value="1" style="endArrow=open;html=1;endSize=12;startArrow=diamondThin;startSize=14;startFill=1;edgeStyle=orthogonalEdgeStyle;align=left;verticalAlign=bottom;rounded=0;strokeColor=default;fontFamily=Helvetica;fontSize=11;fontColor=default;labelBackgroundColor=default;" edge="1" parent="1">
          <mxGeometry x="-1" y="3" relative="1" as="geometry">
            <mxPoint x="-380" y="630" as="sourcePoint" />
            <mxPoint x="-220" y="630" as="targetPoint" />
          </mxGeometry>
        </mxCell>
        <mxCell id="J4vNvcoXh2Qppn3Emtqz-72" style="edgeStyle=orthogonalEdgeStyle;rounded=0;orthogonalLoop=1;jettySize=auto;html=1;entryX=0;entryY=0.5;entryDx=0;entryDy=0;strokeColor=default;align=center;verticalAlign=middle;fontFamily=Helvetica;fontSize=11;fontColor=default;labelBackgroundColor=default;endArrow=block;endFill=0;endSize=10;exitX=1;exitY=0.5;exitDx=0;exitDy=0;dashed=1;" edge="1" parent="1" source="J4vNvcoXh2Qppn3Emtqz-73" target="J4vNvcoXh2Qppn3Emtqz-69">
          <mxGeometry relative="1" as="geometry">
            <Array as="points">
              <mxPoint x="-350" y="1055" />
              <mxPoint x="-350" y="1015" />
            </Array>
          </mxGeometry>
        </mxCell>
        <mxCell id="J4vNvcoXh2Qppn3Emtqz-73" value="NormalUpdater" style="html=1;whiteSpace=wrap;" vertex="1" parent="1">
          <mxGeometry x="-600" y="1030" width="200" height="50" as="geometry" />
        </mxCell>
        <mxCell id="J4vNvcoXh2Qppn3Emtqz-74" style="edgeStyle=orthogonalEdgeStyle;rounded=0;orthogonalLoop=1;jettySize=auto;html=1;entryX=0;entryY=0.5;entryDx=0;entryDy=0;strokeColor=default;align=center;verticalAlign=middle;fontFamily=Helvetica;fontSize=11;fontColor=default;labelBackgroundColor=default;endArrow=block;endFill=0;endSize=10;exitX=1;exitY=0.5;exitDx=0;exitDy=0;dashed=1;" edge="1" parent="1" source="J4vNvcoXh2Qppn3Emtqz-75" target="J4vNvcoXh2Qppn3Emtqz-69">
          <mxGeometry relative="1" as="geometry">
            <Array as="points">
              <mxPoint x="-350" y="1165" />
              <mxPoint x="-350" y="1015" />
            </Array>
          </mxGeometry>
        </mxCell>
        <mxCell id="J4vNvcoXh2Qppn3Emtqz-75" value="ResetUpdater" style="html=1;whiteSpace=wrap;" vertex="1" parent="1">
          <mxGeometry x="-600" y="1140" width="200" height="50" as="geometry" />
        </mxCell>
        <mxCell id="J4vNvcoXh2Qppn3Emtqz-76" style="edgeStyle=orthogonalEdgeStyle;rounded=0;orthogonalLoop=1;jettySize=auto;html=1;entryX=0;entryY=0.5;entryDx=0;entryDy=0;strokeColor=default;align=center;verticalAlign=middle;fontFamily=Helvetica;fontSize=11;fontColor=default;labelBackgroundColor=default;endArrow=block;endFill=0;endSize=10;exitX=1;exitY=0.5;exitDx=0;exitDy=0;dashed=1;" edge="1" parent="1" source="J4vNvcoXh2Qppn3Emtqz-77" target="J4vNvcoXh2Qppn3Emtqz-69">
          <mxGeometry relative="1" as="geometry">
            <Array as="points">
              <mxPoint x="-350" y="945" />
              <mxPoint x="-350" y="1015" />
            </Array>
          </mxGeometry>
        </mxCell>
        <mxCell id="J4vNvcoXh2Qppn3Emtqz-77" value="BaseOnEventTypeUpdater" style="html=1;whiteSpace=wrap;" vertex="1" parent="1">
          <mxGeometry x="-600" y="920" width="200" height="50" as="geometry" />
        </mxCell>
        <mxCell id="J4vNvcoXh2Qppn3Emtqz-78" style="edgeStyle=orthogonalEdgeStyle;rounded=0;orthogonalLoop=1;jettySize=auto;html=1;entryX=0;entryY=0.5;entryDx=0;entryDy=0;strokeColor=default;align=center;verticalAlign=middle;fontFamily=Helvetica;fontSize=11;fontColor=default;labelBackgroundColor=default;endArrow=open;endFill=0;endSize=12;" edge="1" parent="1" source="J4vNvcoXh2Qppn3Emtqz-80" target="J4vNvcoXh2Qppn3Emtqz-37">
          <mxGeometry relative="1" as="geometry" />
        </mxCell>
        <mxCell id="J4vNvcoXh2Qppn3Emtqz-79" style="edgeStyle=orthogonalEdgeStyle;rounded=0;orthogonalLoop=1;jettySize=auto;html=1;entryX=0.5;entryY=0;entryDx=0;entryDy=0;strokeColor=default;align=center;verticalAlign=middle;fontFamily=Helvetica;fontSize=11;fontColor=default;labelBackgroundColor=default;endArrow=open;endFill=0;endSize=12;" edge="1" parent="1" source="J4vNvcoXh2Qppn3Emtqz-80" target="J4vNvcoXh2Qppn3Emtqz-81">
          <mxGeometry relative="1" as="geometry" />
        </mxCell>
        <mxCell id="J4vNvcoXh2Qppn3Emtqz-80" value="EventContext" style="html=1;whiteSpace=wrap;" vertex="1" parent="1">
          <mxGeometry x="-280" y="1120" width="200" height="50" as="geometry" />
        </mxCell>
        <mxCell id="J4vNvcoXh2Qppn3Emtqz-81" value="EventExecuteEnvironment" style="html=1;whiteSpace=wrap;" vertex="1" parent="1">
          <mxGeometry x="-280" y="1250" width="200" height="50" as="geometry" />
        </mxCell>
        <mxCell id="J4vNvcoXh2Qppn3Emtqz-82" style="edgeStyle=orthogonalEdgeStyle;rounded=0;orthogonalLoop=1;jettySize=auto;html=1;strokeColor=default;align=center;verticalAlign=middle;fontFamily=Helvetica;fontSize=11;fontColor=default;labelBackgroundColor=default;endArrow=open;endFill=0;endSize=12;jumpStyle=arc;" edge="1" parent="1" source="J4vNvcoXh2Qppn3Emtqz-28" target="J4vNvcoXh2Qppn3Emtqz-21">
          <mxGeometry relative="1" as="geometry">
            <Array as="points">
              <mxPoint x="730" y="237" />
              <mxPoint x="730" y="399" />
            </Array>
          </mxGeometry>
        </mxCell>
        <mxCell id="J4vNvcoXh2Qppn3Emtqz-83" style="edgeStyle=orthogonalEdgeStyle;rounded=0;orthogonalLoop=1;jettySize=auto;html=1;entryX=0.488;entryY=1.034;entryDx=0;entryDy=0;entryPerimeter=0;strokeColor=default;align=center;verticalAlign=middle;fontFamily=Helvetica;fontSize=11;fontColor=default;labelBackgroundColor=default;endArrow=open;endFill=0;endSize=12;jumpStyle=arc;" edge="1" parent="1" source="J4vNvcoXh2Qppn3Emtqz-20" target="J4vNvcoXh2Qppn3Emtqz-32">
          <mxGeometry relative="1" as="geometry">
            <Array as="points">
              <mxPoint x="410" y="490" />
              <mxPoint x="586" y="490" />
            </Array>
          </mxGeometry>
        </mxCell>
      </root>
    </mxGraphModel>
  </diagram>
</mxfile>
